<?xml version="1.0" encoding="utf-8"?>
<!-- Generator: Adobe Illustrator 21.0.0, SVG Export Plug-In . SVG Version: 6.00 Build 0)  -->
<svg version="1.1" id="图层_3" xmlns="http://www.w3.org/2000/svg" xmlns:xlink="http://www.w3.org/1999/xlink" x="0px" y="0px"
	 width="1024px" height="1024px" viewBox="0 0 1024 1024" style="enable-background:new 0 0 1024 1024;" xml:space="preserve">
<path d="M189.4,539.1c111.3-23.9,96.2-157,92.8-186.1c-5.5-44.8-58.2-123.2-129.8-117C62.3,244.1,49.2,374.3,49.2,374.3
	C37,434.4,78.3,563,189.4,539.1z M307.6,770.5c-3.3,9.3-10.5,33.3-4.2,54.1c12.4,46.7,53,48.8,53,48.8h58.3V731h-62.4
	C324.2,739.3,310.7,761.2,307.6,770.5L307.6,770.5z M396.1,315.9c61.5,0,111.2-70.8,111.2-158.3c0-87.4-49.7-158.2-111.2-158.2
	c-61.4,0-111.2,70.7-111.2,158.2C284.8,245.2,334.7,315.9,396.1,315.9z M660.9,326.4c82.2,10.7,135-77,145.6-143.5
	C817.2,116.5,764.2,39.4,706,26.1c-58.3-13.4-131.1,80-137.7,140.9C560.3,241.5,578.9,315.8,660.9,326.4z M862.3,717.2
	c0,0-127.2-98.4-201.4-204.7c-100.6-156.8-243.6-93-291.4-13.2C321.9,579,247.7,629.4,237.2,642.8C226.5,655.9,83.6,733.1,115.3,874
	c31.7,140.8,143.2,138.1,143.2,138.1s82.1,8.1,177.4-13.2c95.3-21.1,177.4,5.3,177.4,5.3s222.6,74.5,283.5-69
	C957.6,791.6,862.3,717.2,862.3,717.2L862.3,717.2z M481.4,930.8H336.7c-62.5-12.5-87.4-55.1-90.5-62.4c-3.1-7.4-20.8-41.7-11.4-100
	c27-87.4,104-93.7,104-93.7h77V580l65.6,1L481.4,930.8L481.4,930.8z M751,929.8H584.4c-64.6-16.6-67.6-62.5-67.6-62.5V683.1
	l67.6-1.1v165.5c4.1,17.7,26.1,20.9,26.1,20.9h68.6V683.1H751L751,929.8L751,929.8z M986.7,438.1c0-31.8-26.4-127.6-124.4-127.6
	c-98.2,0-111.3,90.4-111.3,154.3c0,61,5.2,146.1,127.1,143.4C1000.1,605.5,986.7,470,986.7,438.1L986.7,438.1z"/>
</svg>
