<?xml version="1.0" encoding="UTF-8"?>
<svg width="1146px" height="1192px" viewBox="0 0 1146 1192" version="1.1" xmlns="http://www.w3.org/2000/svg" xmlns:xlink="http://www.w3.org/1999/xlink">
    <!-- Generator: Sketch 49.2 (51160) - http://www.bohemiancoding.com/sketch -->
    <title>Combined Shape</title>
    <desc>Created with Sketch.</desc>
    <defs></defs>
    <g id="Symbols" stroke="none" stroke-width="1" fill="none" fill-rule="evenodd">
        <g id="Artboard" transform="translate(-50.000000, -28.000000)" fill="#6A6A6A" fill-rule="nonzero">
            <path d="M1100.19062,1124.19062 L1100.19062,215.446486 L909.156005,215.446486 L909.156005,406.818931 L335.414308,406.818931 L335.414308,215.446486 L145.743725,215.446486 L145.743725,1124.19062 L1100.19062,1124.19062 Z M813.53725,311.200176 L813.53725,119.827731 L1195.80938,119.827731 L1195.80938,1219.80938 L50.12497,1219.80938 L50.12497,119.827731 L431.033062,119.827731 L431.033062,311.200176 L813.53725,311.200176 Z M430.609529,311.135212 L813.665177,311.135212 L813.665177,215.756816 L666.375233,215.756816 L666.375231,167.947441 C666.37523,144.116583 646.678007,124.13399 623.330063,124.13399 C599.98212,124.13399 580.284896,144.116583 580.284895,167.947441 L580.284893,215.756816 L430.609529,215.756816 L430.609529,311.135212 Z M909.283932,120.138061 L909.283932,406.753967 L334.990774,406.753967 L334.990774,120.138061 L493.143319,120.138061 C512.647748,66.9610949 563.641475,28.5152348 623.330063,28.5152348 C683.018652,28.5152348 734.012378,66.9610949 753.516801,120.13806 L909.283932,120.138061 Z M793.093455,563.605713 L873.651152,643.631054 L601.087516,914.190062 L599.573273,912.596769 L598.967575,913.16795 L407.264484,722.844719 L487.822182,642.819377 L600.481818,754.74062 L793.093455,563.605713 Z" id="Combined-Shape"></path>
        </g>
    </g>
</svg>