<?xml version="1.0" encoding="UTF-8"?>
<svg width="64px" height="65px" viewBox="0 0 64 65" version="1.1" xmlns="http://www.w3.org/2000/svg" xmlns:xlink="http://www.w3.org/1999/xlink">
    <!-- Generator: Sketch 58 (84663) - https://sketch.com -->
    <title>编组</title>
    <desc>Created with Sketch.</desc>
    <g id="页面-1" stroke="none" stroke-width="1" fill="none" fill-rule="evenodd">
        <g id="小程序-新增分享入口弹起" transform="translate(-36.000000, -1380.000000)">
            <g id="编组" transform="translate(36.000000, 1380.500000)">
                <circle id="椭圆形" fill="#F17255" cx="32" cy="32" r="32"></circle>
                <path d="M30.5901461,35.0416414 C30.5399451,35.3175599 30.4771799,35.5307683 30.4018504,35.6812668 C30.3265209,35.8317652 30.1507894,35.9948028 29.8746559,36.1703797 C29.221931,36.5717181 28.5190051,36.8977934 27.7658782,37.1486055 C27.0127513,37.3994175 26.291,37.675322 25.6006244,37.9763188 C24.9102487,38.2773157 24.3077388,38.6723566 23.7930946,39.1614415 C23.2784504,39.6505264 22.9583771,40.3465502 22.8328746,41.2495127 C22.7826736,41.5254312 22.751298,41.7950661 22.7387477,42.0584173 C22.7261975,42.3217686 22.7073721,42.566311 22.6822716,42.7920447 C22.6571711,42.8422015 22.6320706,42.8860887 22.6069701,42.9237063 C22.5818696,42.9613239 22.5567691,43.0052111 22.5316686,43.055368 C21.5525813,42.9801047 20.5609576,42.8923023 19.5567978,42.7919607 C18.5526379,42.6916191 17.6300547,42.5787383 16.789048,42.4533183 C15.9480414,42.3278982 15.2388403,42.2024922 14.6614449,42.0771002 C14.0840495,41.9517081 13.7200223,41.8263021 13.5693633,41.7008821 C13.3434028,41.5252773 13.1739464,40.9985467 13.0609942,40.1206906 C12.948042,39.2428344 12.9919678,38.1015849 13.1927718,36.6969422 C13.3183023,35.9193717 13.6383756,35.3236615 14.1529918,34.9098119 C14.667608,34.4959622 15.276393,34.1698869 15.9793469,33.9315861 C16.6823009,33.6932852 17.4040521,33.4738072 18.1446008,33.2731519 C18.8851494,33.0724967 19.5441495,32.7965922 20.1216009,32.4454385 C20.5734659,32.1444417 20.9186537,31.8685372 21.1571644,31.6177252 C21.3956752,31.3669131 21.5651315,31.1098175 21.6655335,30.8464382 C21.7659355,30.583059 21.8161505,30.3134241 21.8161785,30.0375336 C21.8162065,29.7616432 21.8036562,29.4606463 21.7785277,29.134543 C21.7283267,28.6328909 21.5588704,28.2378501 21.2701587,27.9494204 C20.981447,27.6609907 20.6613736,27.3662775 20.3099387,27.0652806 C20.1091067,26.9398606 19.9396504,26.7391913 19.8015696,26.4632729 C19.6634889,26.1873544 19.5442475,25.91145 19.4438455,25.6355595 C19.3434156,25.3345626 19.2429996,24.9959482 19.1425976,24.6197161 C18.9919946,24.5695593 18.8413636,24.4943241 18.6907046,24.3940104 C18.5651741,24.2936688 18.4333685,24.1431704 18.2952878,23.9425151 C18.1572071,23.7418599 18.0254015,23.4659554 17.899871,23.1148018 C17.7743405,22.7636481 17.7241255,22.4313032 17.749226,22.1177672 C17.7743265,21.8042311 17.8370917,21.5345962 17.9375217,21.3088626 C18.0379517,21.0329441 18.1760324,20.8072105 18.3517639,20.6316616 C18.3266634,19.8290407 18.3643282,19.0138665 18.4647582,18.1861391 C18.5651882,17.5089102 18.7283694,16.7815104 18.9543019,16.0039399 C19.1802343,15.2263693 19.519147,14.524062 19.97104,13.8970178 C20.3727319,13.2950241 20.8246109,12.8059112 21.3266768,12.4296791 C21.8287427,12.053447 22.3371118,11.7587338 22.851784,11.5455393 C23.3664562,11.3323449 23.8873615,11.18813 24.4144999,11.1128948 C24.9416383,11.0376596 25.4562965,11 25.9584745,11 C27.2136953,11 28.3433997,11.2633793 29.3475876,11.7901378 C30.3517754,12.3168963 31.1049023,12.8812584 31.6069683,13.4832241 C31.9333307,13.909641 32.1404378,14.3046819 32.2282896,14.6683468 C32.3161413,15.0320116 32.4353827,15.4521309 32.5860136,15.9287046 C32.1090202,16.2046231 31.6006511,16.6122172 31.0609064,17.1514869 C30.5211618,17.6907566 30.0504575,18.2362959 29.6487935,18.7881048 C29.1466996,19.4904122 28.7701361,20.2679548 28.5191032,21.1207325 C28.2680702,21.9735103 28.0797745,22.7636201 27.954216,23.4910618 C27.8286855,24.368946 27.7659202,25.2468162 27.7659202,26.1246724 C27.5650882,26.350434 27.4144573,26.6012601 27.3140273,26.8771506 C27.2135973,27.1279626 27.150832,27.4226759 27.1257315,27.7612904 C27.100631,28.0999048 27.150846,28.4698533 27.2763765,28.8711358 C27.401907,29.2975527 27.5399878,29.623628 27.6906187,29.8493616 C27.8412497,30.0750953 27.9793305,30.2506721 28.1048609,30.3760921 C28.2554639,30.5265626 28.4060949,30.6268902 28.5567539,30.677075 C28.6571839,31.0784135 28.7575999,31.4546455 28.8580019,31.8057712 C28.9584318,32.1067681 29.0776732,32.4140206 29.2157259,32.7275286 C29.3537786,33.0410367 29.523235,33.273054 29.724095,33.4235804 C29.8998545,33.5740508 30.0379352,33.6994568 30.1383372,33.7997985 C30.2387392,33.9001401 30.3203298,33.9941981 30.383109,34.0819725 C30.4458883,34.1697469 30.483553,34.2888834 30.4961033,34.4393818 C30.5086535,34.5898802 30.5400432,34.7905495 30.5902722,35.0413895 L30.5901461,35.0416414 Z M50.6611013,41.9643733 C50.7615313,42.315527 50.8431219,42.7419299 50.9058731,43.243582 C50.9686244,43.7452341 51,44.2531558 51,44.7673471 C51,45.2815384 50.9623353,45.7643677 50.8870058,46.215835 C50.8116763,46.6673023 50.698696,47.0059168 50.548065,47.2316784 C50.447635,47.3821488 50.1526622,47.5326473 49.6631465,47.6831737 C49.1736308,47.8337001 48.5648458,47.9716593 47.8367914,48.0970514 C47.108737,48.2224434 46.3053951,48.3415798 45.4267657,48.4544607 C44.5481363,48.5673415 43.6632038,48.6613995 42.7719681,48.7366347 C41.8807325,48.8118699 41.0209145,48.87458 40.1925141,48.9247648 C39.3641137,48.9749496 38.6360733,49 38.0083929,49 C37.3807124,49 36.6589611,48.9748936 35.843139,48.9247648 C35.0273169,48.8746359 34.1800491,48.8119259 33.3013357,48.7366347 C32.4226223,48.6613435 31.5565152,48.5798247 30.7030143,48.4920783 C29.8495134,48.4043318 29.0649969,48.3040042 28.3494647,48.1910954 C27.6339325,48.0781866 27.0314366,47.9653058 26.541977,47.8524529 C26.0525173,47.7396001 25.7449942,47.6330029 25.6194077,47.5326613 C25.4185757,47.3570564 25.2553945,46.8303259 25.129864,45.9524697 C25.0043335,45.0746135 25.0419983,43.9459033 25.2428583,42.566339 C25.3683887,41.763718 25.6884621,41.1617383 26.2030782,40.7603998 C26.7176944,40.3590614 27.3264795,40.0329861 28.0294334,39.782174 C28.7323873,39.531362 29.4541386,39.3118839 30.1946872,39.1237399 C30.9352359,38.9355959 31.5942359,38.6534078 32.1716874,38.2771757 C32.6235523,37.9761789 32.9687402,37.7002744 33.2072509,37.4494624 C33.4457616,37.1986503 33.6214931,36.9478243 33.7344453,36.6969842 C33.8473975,36.4461442 33.9038877,36.1827789 33.9039157,35.9068884 C33.9039437,35.630998 33.8913934,35.3174619 33.8662649,34.9662803 C33.8160639,34.4646281 33.6403325,34.0695873 33.3390705,33.7811576 C33.0378085,33.4927279 32.7114461,33.2105399 32.3599831,32.9345934 C32.1842236,32.784123 32.0273175,32.5709145 31.8892648,32.2949681 C31.7512121,32.0190217 31.6319707,31.7431172 31.5315407,31.4672547 C31.4311107,31.1662579 31.3306947,30.8276434 31.2302928,30.4514113 C31.0796898,30.4012545 30.9290588,30.3260193 30.7783998,30.2257056 C30.6528693,30.125364 30.5210637,29.9748656 30.382983,29.7742104 C30.2449022,29.5735551 30.1130966,29.2976507 29.9875661,28.946497 C29.8620357,28.5953433 29.8118207,28.2629984 29.8369212,27.9494624 C29.8620216,27.6359263 29.9247869,27.3788307 30.0252169,27.1781754 C30.1256469,26.9273634 30.2637276,26.7016297 30.4394591,26.5009745 C30.4143586,25.6983535 30.4520233,24.8831793 30.5524533,24.0554519 C30.6528833,23.3531446 30.8097894,22.6194892 31.0231717,21.8544859 C31.2365539,21.0894825 31.5691915,20.3809056 32.0210844,19.728755 C32.4227764,19.1267613 32.8746553,18.6376484 33.3767212,18.2614163 C33.8787872,17.8851842 34.3934454,17.590471 34.9206958,17.3772765 C35.4479463,17.1640821 35.9751407,17.0198672 36.5022791,16.944632 C37.0294175,16.8693968 37.5314975,16.8317372 38.0085189,16.8317372 C39.2888683,16.8317372 40.4311229,17.0951025 41.4352827,17.621833 C42.4394426,18.1485635 43.1800333,18.7129256 43.6570547,19.3149193 C44.2093497,19.9921483 44.6173027,20.750896 44.880914,21.5911626 C45.1445252,22.4314292 45.339082,23.2152553 45.4645845,23.9426411 C45.590115,24.7954469 45.64033,25.6482526 45.6152295,26.5010584 C45.74076,26.6014 45.8537402,26.7393593 45.9541702,26.9149361 C46.0294997,27.0654065 46.0985401,27.2597922 46.1612913,27.498093 C46.2240426,27.7363939 46.2303317,28.0311071 46.1801587,28.3822328 C46.1299577,28.8337001 46.0295417,29.197407 45.8789108,29.4733534 C45.7282798,29.7492999 45.5776488,29.9625083 45.4270178,30.1129788 C45.2512583,30.2885836 45.0504123,30.4014644 44.8244799,30.4516212 C44.7240499,30.8278813 44.6236339,31.1664958 44.5232319,31.4674646 C44.4228019,31.7433831 44.2972854,32.0192876 44.1466825,32.295178 C43.9960795,32.5710685 43.8328983,32.7717377 43.6571388,32.8971857 C43.4563068,33.0727906 43.2743002,33.223289 43.111119,33.348681 C42.9479377,33.4740731 42.8035959,33.6057627 42.6780934,33.7437499 C42.5525909,33.8817371 42.4458998,34.0385052 42.3580201,34.214054 C42.2701403,34.3896028 42.2011,34.6028113 42.150899,34.8536793 C42.100698,35.1797546 42.0818726,35.5120995 42.0944229,35.8507139 C42.1069731,36.1893284 42.1885637,36.5216733 42.3391947,36.8477485 C42.4898257,37.1738238 42.7345835,37.4873599 43.0734682,37.7883567 C43.4123529,38.0893536 43.8830572,38.3527188 44.4855812,38.5784525 C45.0127756,38.8042141 45.5964461,38.9985998 46.2365928,39.1616094 C46.8767395,39.3246191 47.4917996,39.5190047 48.0817733,39.7447664 C48.671747,39.970528 49.1989414,40.2589717 49.6633566,40.6100973 C50.1277718,40.961223 50.4604094,41.4127043 50.6612694,41.9645412 L50.6611013,41.9643733 Z" id="形状" fill="#FFFFFF" fill-rule="nonzero"></path>
            </g>
        </g>
    </g>
</svg>