<?xml version="1.0" encoding="UTF-8"?>
<svg width="1024px" height="1024px" viewBox="0 0 1024 1024" version="1.1" xmlns="http://www.w3.org/2000/svg" xmlns:xlink="http://www.w3.org/1999/xlink">
    <!-- Generator: Sketch 52.4 (67378) - http://www.bohemiancoding.com/sketch -->
    <title>职业标签已赞</title>
    <desc>Created with Sketch.</desc>
    <g id="职业标签已赞" stroke="none" stroke-width="1" fill="none" fill-rule="evenodd">
        <g fill="#FF6644" fill-rule="nonzero" id="Group-Copy-4">
            <g transform="translate(85.333333, 56.888889)">
                <path d="M227.555556,395.100939 L227.555556,796.445759 L675.191344,796.445759 L676.570784,796.444311 L677.934302,796.404193 L679.540342,796.300849 L681.116733,796.16775 L682.425853,796.037405 L683.97181,795.829392 L685.217488,795.643873 L686.710239,795.364004 L687.974759,795.105237 L689.374175,794.771095 L690.795468,794.393177 L691.804536,794.115613 L694.570785,793.218272 L697.08634,792.28808 L699.573652,791.214383 L701.508884,790.308334 L706.290585,787.579335 L710.714106,784.477503 L714.918249,780.843236 L719.041826,776.487835 L720.409937,774.861474 L723.572353,770.4754 L726.574391,765.17512 L727.693914,762.818367 L728.544766,760.849098 L730.477486,754.982394 L731.321456,751.401611 L734.88952,734.853456 L796.321906,391.087672 L796.106663,388.622219 L795.733538,385.904261 L795.223644,383.246784 L794.50832,380.414412 L793.730366,377.796342 L792.854008,375.298921 L791.836475,372.832189 L790.59944,370.247463 L789.334363,367.861421 L787.957258,365.545896 L786.444328,363.268807 L784.838705,361.085184 L783.209175,359.067753 L781.305493,356.96803 L779.333183,354.976239 L777.419185,353.189634 L775.334388,351.445923 L773.151956,349.792275 L770.905596,348.250348 L768.584498,346.818314 L766.061591,345.435673 L763.630134,344.226349 L761.184557,343.156608 L758.333023,342.10434 L756.850362,341.630262 L755.450419,341.210064 L754.093701,340.833643 L752.829181,340.511458 L751.630744,340.240331 L749.860197,339.916418 L748.608843,339.690079 L747.299723,339.496315 L745.744681,339.320938 L744.159991,339.175314 L742.817822,339.071777 L741.438382,339.006911 L739.359503,338.986673 L445.010452,337.399967 L452.965642,302.777704 L453.835998,298.993453 L455.193634,292.873338 L456.944253,284.791876 L457.938792,280.11963 L458.954942,275.315625 L460.031586,269.985643 L461.140523,264.4345 L462.243964,258.795789 L463.370535,252.734269 L464.47551,246.764213 L465.561885,240.560245 L466.615607,234.366225 L467.607177,228.268619 L468.558286,221.906999 L469.001443,218.899414 L469.40628,216.030477 L469.81822,212.832073 L470.176616,210.10659 L470.547555,206.931282 L470.850416,204.436406 L471.153304,201.394729 L471.418879,198.786901 L471.644871,196.259478 L471.846143,193.595639 L472.01335,191.226611 L472.153413,188.701001 L472.254061,186.862128 L472.357051,182.849651 L472.334085,179.384792 L472.230299,176.728252 L472.10524,175.277425 L472.17369,175.046217 L471.937408,174.110377 L471.209992,172.724304 L469.537647,169.750946 L467.68186,166.715887 L465.81048,163.84295 L463.863135,161.052715 L461.77228,158.270325 L459.506578,155.447921 L457.228883,152.745255 L454.883603,150.114084 L452.469591,147.55297 L449.91517,144.993951 L447.311248,142.509717 L444.657084,140.099238 L441.867944,137.692655 L439.038298,135.352159 L436.178565,133.089032 L433.195151,130.835189 L430.27057,128.704192 L427.314435,126.648477 L424.093169,124.519343 L421.00985,122.533876 L417.931216,120.628811 L414.669844,118.703706 L411.590956,116.936634 L408.148359,115.060094 L405.088298,113.411802 L401.77752,111.722001 L398.556645,110.124142 L395.411282,108.617908 L392.043516,107.079455 L388.833181,105.640696 L385.596881,104.240514 L382.471299,102.927618 L379.321656,101.654944 L376.171167,100.425103 L373.003733,99.2257842 L370.038754,98.1246964 L367.020411,97.0490427 L364.05084,96.0219369 L361.188731,95.0564257 L358.48633,94.1744494 L355.631652,93.2857173 L352.871174,92.4411826 L350.400698,91.6975012 L347.838731,90.9636337 L345.256819,90.2419448 L343.156234,89.6568377 L340.882976,89.0639907 L338.421421,88.4375281 L336.874232,88.0277535 L333.02441,87.1241016 L330.918716,86.6453459 L330.419421,87.2014825 L328.548119,89.5183972 L326.594676,92.1449576 L324.417038,95.3356234 L323.257038,97.1409659 L322.221332,98.7800086 L321.001216,100.799288 L319.91175,102.618846 L318.698093,104.729823 L317.581396,106.702904 L316.355117,108.95356 L315.17045,111.163877 L313.977826,113.446393 L312.696174,115.963706 L311.549548,118.226631 L310.222884,120.959823 L308.951073,123.577253 L307.784115,126.009473 L306.454115,128.898216 L305.204959,131.605336 L303.988973,134.295776 L302.656448,137.338959 L301.368453,140.273372 L300.142292,143.102241 L298.808115,146.277033 L297.575771,149.197816 L296.300661,152.312769 L295.023961,155.47241 L292.455195,161.911099 L289.916108,168.415064 L287.361485,175.17327 L284.830788,181.969567 L282.334453,188.830013 L279.819856,195.943658 L277.352998,202.981444 L274.926302,210.084614 L272.494454,217.391921 L270.121476,224.58302 L267.760135,231.910035 L265.450356,239.160451 L263.181996,246.45923 L260.956104,253.735672 L258.772668,260.989769 L256.640748,268.19027 L254.551622,275.398529 L252.541992,282.411161 L250.575654,289.487075 L248.667875,296.419276 L246.824686,303.241305 L245.040605,309.973984 L243.342596,316.491109 L241.698975,323.000425 L240.147176,329.225451 L238.650044,335.426088 L237.245183,341.314427 L235.917313,347.064428 L234.69901,352.486038 L233.544957,357.887158 L232.492974,362.887877 L231.532274,367.700437 L230.678304,372.152699 L229.926501,376.352231 L229.277355,380.253973 L228.481781,385.387705 L228.100704,388.341376 L227.82407,390.863442 L227.666419,392.412629 L227.555556,395.100939 Z M170.666667,853.333333 L56.8888889,853.333333 C25.4700231,853.333333 3.84770134e-15,827.86331 0,796.444444 L0,398.222222 C-3.84770134e-15,366.803356 25.4700231,341.333333 56.8888889,341.333333 L178.910279,341.333333 L179.128198,340.31456 L180.447648,334.437795 L181.860902,328.318856 L183.331329,322.152842 L184.896535,315.672984 L186.519365,309.160322 L188.237253,302.359515 L190.018514,295.520587 L191.868762,288.538474 L193.782517,281.455138 L195.74446,274.325258 L197.791206,266.962979 L199.886553,259.64835 L202.045853,252.199126 L204.260384,244.71894 L206.517855,237.21882 L208.818257,229.698757 L211.183986,222.088053 L213.58355,214.553946 L216.035525,206.947344 L218.492679,199.499227 L221.019032,191.910393 L223.590621,184.383013 L226.15717,177.058328 L228.78468,169.628422 L231.441875,162.324623 L234.096494,155.194128 L236.809347,148.020789 L239.53522,141.035848 L242.2295,134.281029 L243.601709,130.884993 L245.038035,127.379345 L246.372526,124.212265 L247.815034,120.78382 L249.217057,117.545478 L250.553202,114.500463 L252.005885,111.187264 L253.446747,107.996443 L254.785416,105.092943 L256.287126,101.838617 L257.705334,98.8751993 L259.047339,96.1121023 L260.569381,92.9844355 L261.956399,90.2379948 L263.411094,87.3835936 L264.873747,84.5838322 L266.294788,81.9301061 L267.825411,79.1256438 L269.259073,76.5859143 L270.816927,73.8816035 L272.222781,71.524991 L273.791695,68.9361188 L275.236316,66.6403839 L276.94426,63.9965272 L280.136011,59.3299344 L283.367204,54.9667436 L286.759805,50.7540412 L290.391364,46.679056 L294.26477,42.8374654 L298.422308,39.264215 L302.036178,36.6339857 L304.405956,35.1119363 L307.438433,33.4164262 L309.765512,32.2960288 L313.639722,30.7690632 L315.945452,30.0503177 L320.426551,29.041911 L326.79916,28.1404835 L334.681381,29.3378063 L336.077509,29.5856285 L338.745288,30.1295253 L342.056204,30.8393119 L345.806751,31.6902447 L350.514922,32.8025194 L352.57943,33.3387334 L355.067077,33.9719817 L357.919541,34.7186678 L360.504172,35.43447 L363.322242,36.2226518 L366.402598,37.1067176 L369.363746,37.9956281 L372.401489,38.9248993 L375.740954,39.9666243 L379.070158,41.0516518 L382.419995,42.1807826 L385.849156,43.3670633 L389.459777,44.6547475 L392.953341,45.9498981 L396.570596,47.3202246 L400.295444,48.7745566 L404.108401,50.3155023 L407.874688,51.8960004 L411.730989,53.564759 L415.472557,55.2395213 L419.479227,57.0733401 L423.431735,58.9635113 L427.315687,60.8885767 L431.450358,63.0031295 L435.202493,65.0162714 L439.318336,67.2657181 L443.230346,69.5051092 L447.303745,71.9125176 L451.308411,74.3875005 L455.132431,76.8456547 L459.178883,79.5252043 L463.171492,82.2985879 L467.019871,85.0971032 L470.906532,88.0343114 L474.737885,91.063268 L478.502995,94.1741131 L482.274986,97.4290406 L485.969122,100.779329 L489.584664,104.223949 L493.191169,107.835591 L496.695612,111.546292 L500.096844,115.354615 L503.339275,119.191177 L506.585758,123.236869 L509.783607,127.486112 L512.822578,131.821771 L515.663648,136.164423 L518.474667,140.759033 L521.0688,145.343723 L523.139687,149.254544 L524.438718,152.068568 L525.420788,154.541898 L526.563094,158.075784 L527.827108,163.509982 L528.449276,167.555445 L528.900573,172.001802 L529.176498,177.415563 L529.236789,183.063872 L529.102594,188.856385 L528.965116,191.657948 L528.790733,194.76407 L528.586367,197.702218 L528.342673,200.90362 L528.053166,204.151454 L527.758272,207.071137 L527.399303,210.622179 L527.044364,213.598487 L526.634183,217.088039 L526.234848,220.146949 L525.785711,223.619885 L525.310846,226.996451 L524.831548,230.253337 L523.816279,237.029731 L522.735066,243.688573 L521.622457,250.231769 L520.464402,256.839759 L519.306592,263.102611 L518.125652,269.450039 L516.950209,275.462243 L515.865646,280.892235 L739.786265,282.099511 L742.804792,282.140343 L745.83924,282.269341 L748.588468,282.461951 L751.324646,282.709365 L754.285396,283.044091 L757.282562,283.473078 L759.717838,283.889051 L762.682525,284.442367 L765.559779,285.071463 L768.302137,285.75202 L770.937221,286.47336 L773.468238,287.225377 L776.551824,288.223647 L781.856062,290.176866 L786.982275,292.371013 L791.824894,294.730076 L796.655829,297.356841 L801.348008,300.211945 L805.869273,303.272423 L810.23198,306.53879 L814.509294,310.079359 L818.450754,313.689554 L822.204651,317.445494 L825.955157,321.558539 L829.40933,325.759068 L832.657306,330.119805 L835.720866,334.674642 L838.554864,339.370357 L841.096664,344.078784 L843.516377,349.095462 L845.692976,354.271706 L847.583691,359.517558 L849.174097,364.718224 L850.585645,370.241762 L851.706975,375.852796 L852.528963,381.49684 L853.056816,387.050775 L853.47021,394.679222 L852.889741,397.927432 L790.701802,745.824803 L786.827565,763.85686 L785.30169,770.018574 L782.138864,779.824048 L780.034635,785.056402 L777.379094,790.685283 L771.98042,800.230188 L766.217848,808.539426 L762.29272,813.37974 L754.904164,821.224262 L746.68887,828.459682 L737.871034,834.8207 L729.088891,840.023988 L724.10393,842.52288 L718.955068,844.784763 L713.864756,846.720125 L708.896005,848.366263 L706.28227,849.129881 L703.582611,849.852718 L700.705357,850.545232 L698.034985,851.110946 L695.07484,851.665312 L692.372276,852.091485 L689.411526,852.48963 L686.696697,852.779323 L683.968819,853.014212 L680.95572,853.206629 L677.937194,853.310879 L675.464777,853.333333 L170.666667,853.333333 Z" id="Combined-Shape"></path>
            </g>
        </g>
    </g>
</svg>