<?xml version="1.0" encoding="utf-8"?>
<!-- Generator: Adobe Illustrator 21.0.0, SVG Export Plug-In . SVG Version: 6.00 Build 0)  -->
<svg version="1.1" id="图层_3" xmlns="http://www.w3.org/2000/svg" xmlns:xlink="http://www.w3.org/1999/xlink" x="0px" y="0px"
	 width="1024px" height="1024px" viewBox="0 0 1024 1024" enable-background="new 0 0 1024 1024" xml:space="preserve">
<g>
	<path d="M512,0C269.926,0,73,193.956,73,432.364c0,153.251,136.561,340.888,417.465,573.619L512.198,1024l21.568-18.2
		C814.522,769.028,951,581.457,951,432.364C951,193.957,754.074,0,512,0z M511.819,935.776
		c-246.41-207.75-371.28-377.039-371.28-503.412c0-201.134,166.637-364.78,371.461-364.78s371.461,163.645,371.461,364.78
		C883.461,555.007,758.443,724.313,511.819,935.776z"/>
	<path d="M511.967,229.497c-93.096,0-168.846,75.801-168.846,168.959s75.75,168.959,168.846,168.959s168.846-75.801,168.846-168.959
		S605.063,229.497,511.967,229.497z M511.967,499.832c-55.865,0-101.307-45.474-101.307-101.375s45.444-101.375,101.307-101.375
		s101.307,45.474,101.307,101.375S567.832,499.832,511.967,499.832z"/>
</g>
</svg>
