<?xml version="1.0" encoding="utf-8"?>
<!-- Generator: Adobe Illustrator 23.0.1, SVG Export Plug-In . SVG Version: 6.00 Build 0)  -->
<svg version="1.1" id="图层_3" xmlns="http://www.w3.org/2000/svg" xmlns:xlink="http://www.w3.org/1999/xlink" x="0px" y="0px"
	 viewBox="0 0 1024 1024" style="enable-background:new 0 0 1024 1024;" xml:space="preserve">
<path d="M512,1015.2c277.5,0,503.1-225.7,503.1-503.1C1015.1,234.6,789.5,8.9,512,8.9S8.9,234.6,8.9,511.9
	C8.9,789.4,234.5,1015.2,512,1015.2L512,1015.2z M619.3,426.9L401,212.4c0,0,44.4-18.5,107.3-18.5s107.3,18.5,107.3,18.5v214.5
	H619.3L619.3,426.9z M648.9,530.4V227.2c0,0,44.4,18.5,88.8,62.9c44.4,44.4,62.9,88.8,62.9,88.8L648.9,530.4L648.9,530.4z
	 M597.1,619.2L811.7,401c0,0,18.5,44.4,18.5,107.3c0,66.6-18.5,107.3-18.5,107.3H597.1V619.2L597.1,619.2z M493.5,645.2h303.4
	c0,0-18.5,44.4-62.9,88.8c-44.4,48.1-85.1,66.6-85.1,66.6L493.5,645.2L493.5,645.2z M404.7,593.3L623,807.9
	c0,0-44.4,18.5-107.3,18.5s-107.3-18.5-107.3-18.5V593.3H404.7L404.7,593.3z M378.8,493.5v303.4c0,0-44.4-18.5-88.8-62.9
	s-62.9-88.8-62.9-88.8L378.8,493.5L378.8,493.5z M430.6,404.8L216,622.9c0,0-18.5-44.4-18.5-107.3c0-66.6,18.5-107.3,18.5-107.3
	h214.6V404.8L430.6,404.8z M530.5,375.1H227.1c0,0,18.5-44.4,62.9-88.8s88.8-62.9,88.8-62.9L530.5,375.1L530.5,375.1z"/>
</svg>
