<?xml version="1.0" encoding="UTF-8"?>
<svg width="1024px" height="1024px" viewBox="0 0 1024 1024" version="1.1" xmlns="http://www.w3.org/2000/svg" xmlns:xlink="http://www.w3.org/1999/xlink">
    <!-- Generator: Sketch 52.4 (67378) - http://www.bohemiancoding.com/sketch -->
    <title>未点赞心@2x</title>
    <desc>Created with Sketch.</desc>
    <g id="组件" stroke="none" stroke-width="1" fill="none" fill-rule="evenodd">
        <g id="未点赞心" fill="#FFFFFF" fill-rule="nonzero">
            <g id="xinheart118">
                <path d="M540.702452,841.435365 C598.603588,797.899411 656.486734,750.494933 710.230527,701.073799 C793.585123,624.423487 858.740849,550.336804 898.274023,483.68508 C925.325272,438.077501 938.666667,398.648709 938.666667,367.502773 C938.666667,258.878267 850.149939,170.666667 740.845971,170.666667 C676.839909,170.666667 618.099986,201.260972 580.876513,252.190753 L511.968845,346.471382 L443.079264,252.177536 C405.87889,201.258859 347.144325,170.666667 283.126377,170.666667 C222.548724,170.666667 173.187306,187.130396 140.140397,216.987502 C105.10671,248.639616 85.3333333,297.694009 85.3333333,367.502773 C85.3333333,393.53596 93.2962588,423.887338 109.555976,457.968112 C145.243159,532.769336 216.806519,617.709289 313.340739,705.322541 C366.92282,753.952969 424.64477,800.255363 482.383325,842.513026 C492.374957,849.825696 502.004633,856.749673 511.210936,863.26082 C520.620484,856.411554 530.472752,849.127092 540.702452,841.435365 Z M443.088923,151.48479 L464.905384,151.486882 C482.556687,166.297774 498.376586,183.214136 511.982718,201.837772 C525.591554,183.217933 541.411808,166.304672 559.061511,151.495913 L580.886171,151.498007 C578.223056,147.852821 575.499258,144.263234 572.716572,140.730386 C619.703536,105.956219 677.817369,85.3333333 740.845971,85.3333333 C897.216677,85.3333333 1024,211.688142 1024,367.502773 C1024,625.048872 511.982718,967.111111 511.982718,967.111111 C511.982718,967.111111 0,637.381211 0,367.502773 C0,173.506116 126.781594,85.3333333 283.126377,85.3333333 C346.160946,85.3333333 404.275064,105.954067 451.255531,140.724946 C448.473958,144.255279 445.751158,147.842274 443.088923,151.48479 Z"></path>
            </g>
        </g>
    </g>
</svg>