<?xml version="1.0" encoding="UTF-8"?>
<svg width="1024px" height="1024px" viewBox="0 0 1024 1024" version="1.1" xmlns="http://www.w3.org/2000/svg" xmlns:xlink="http://www.w3.org/1999/xlink">
    <!-- Generator: Sketch 52.4 (67378) - http://www.bohemiancoding.com/sketch -->
    <title>职业标签未赞</title>
    <desc>Created with Sketch.</desc>
    <g id="职业标签未赞" stroke="none" stroke-width="1" fill="none" fill-rule="evenodd">
        <g transform="translate(85.333333, 56.888889)" fill="#BBBBBB" fill-rule="nonzero" id="Group-Copy">
            <g>
                <path d="M183.221339,857.468316 L56.8888889,857.468316 C25.4700231,857.468316 3.84770134e-15,831.998293 0,800.579427 L0,390.965278 C-3.84770134e-15,359.546412 25.4700231,334.076389 56.8888889,334.076389 L192.946144,334.076389 L194.300426,328.107869 L195.757825,321.887202 L197.308477,315.352747 L198.91691,308.782434 L200.618872,301.924128 L202.38418,295.025245 L204.217774,287.982232 L206.114348,280.836947 L208.059061,273.643315 L210.086905,266.218535 L212.163766,258.838797 L214.303562,251.324833 L216.498317,243.778868 L218.735646,236.212745 L221.015536,228.626454 L223.35971,220.950205 L225.738089,213.349083 L228.167771,205.676825 L230.603393,198.161964 L233.106617,190.508106 L235.654654,182.916254 L238.198693,175.525987 L240.801927,168.033037 L243.434879,160.666429 L246.065771,153.473293 L248.753263,146.239869 L251.454273,139.194846 L254.124584,132.380403 L255.48412,128.955557 L256.906032,125.422968 L258.229294,122.226386 L259.65726,118.771749 L261.046245,115.506144 L262.371111,112.432847 L263.80905,109.094563 L265.235899,105.878242 L266.563217,102.947886 L268.049029,99.6703306 L269.453875,96.6823288 L270.784441,93.8938019 L272.290229,90.7440948 L273.664706,87.9738186 L275.104906,85.0972872 L276.552931,82.2759199 L277.960368,79.6005832 L279.47493,76.7758482 L280.894802,74.2155526 L282.436215,71.4918518 L283.828986,69.1154176 L285.381212,66.5081971 L286.811816,64.1940626 L288.500778,61.5327 L291.659591,56.8314341 L294.858206,52.4348055 L298.217361,48.1888783 L301.815078,44.0795968 L305.656577,40.2016389 L309.786533,36.5890258 L313.385047,33.9236827 L315.734537,32.3876827 L318.78187,30.6536339 L321.089027,29.5229672 L325.003819,27.9527211 L327.289809,27.2273878 L331.83873,26.1856603 L338.264517,25.2604587 L346.186608,26.485354 L347.60534,26.7416854 L350.25696,27.2919853 L353.547737,28.0101165 L357.271064,28.869996 L361.954102,29.9962796 L363.997837,30.5365981 L366.467884,31.1766194 L369.305449,31.9327533 L371.869424,32.655533 L374.667188,33.4520389 L377.728855,34.3464997 L380.667774,35.2445203 L383.68242,36.1832224 L387.000796,37.2369252 L390.307305,38.3338549 L393.632847,39.4748569 L397.037721,40.6738209 L400.624334,41.9758591 L404.091622,43.2842656 L407.683058,44.6691651 L411.381887,46.1391966 L415.168765,47.6970136 L418.907978,49.294237 L422.73713,50.9809161 L426.450058,52.6725892 L430.429779,54.52671 L434.354301,56.4371019 L438.209593,58.3821587 L442.31662,60.5202194 L446.038967,62.5530975 L450.126425,64.8270538 L454.00908,67.0894139 L458.053412,69.52245 L462.028632,72.0232159 L465.823006,74.5059495 L469.839739,77.2134459 L473.802417,80.0153145 L477.620839,82.8417297 L481.477303,85.8082714 L485.278312,88.8670054 L489.01302,92.0079308 L492.754204,95.2940223 L496.417496,98.675752 L500.002199,102.152055 L503.577193,105.796134 L507.050234,109.539296 L510.420242,113.380063 L513.632503,117.248821 L516.847548,121.326843 L520.013201,125.608315 L523.02093,129.975897 L525.832491,134.350057 L528.612874,138.97548 L531.178779,143.591029 L533.231937,147.537695 L534.497477,150.327898 L535.47114,152.823898 L536.579356,156.313101 L537.820611,161.738342 L538.432515,165.784177 L538.876557,170.229861 L539.149045,175.661625 L539.208918,181.335043 L539.076591,187.159785 L538.940535,189.982233 L538.768295,193.106205 L538.565996,196.066815 L538.325172,199.28783 L538.039003,202.556191 L537.746531,205.50368 L537.392176,209.072923 L537.040071,212.078276 L536.634607,215.589895 L536.23853,218.6781 L535.794342,222.174525 L535.324211,225.5773 L534.849258,228.862377 L533.844049,235.691954 L532.772965,242.406472 L531.670472,249.00616 L530.523513,255.668032 L529.375736,261.987619 L528.206117,268.386764 L527.041287,274.45124 L525.907685,280.228239 L525.885895,280.33794 L747.719412,281.555354 L750.733737,281.59709 L753.764164,281.728458 L756.504777,281.92402 L759.232555,282.175209 L762.189105,282.515665 L765.182304,282.95199 L767.604706,283.373203 L770.565265,283.935874 L773.436985,284.575199 L776.171317,285.26605 L778.797419,285.99791 L781.318172,286.760366 L784.397767,287.775492 L789.683014,289.757093 L794.787807,291.981635 L799.605831,294.371032 L804.411228,297.030997 L809.075939,299.920448 L813.567874,303.015673 L817.899737,306.317108 L822.144299,309.893491 L826.052868,313.537583 L829.773419,317.32666 L833.488022,321.472976 L836.907132,325.704932 L840.120277,330.095647 L843.149126,334.678847 L845.949462,339.401045 L848.460564,344.135054 L850.849042,349.174372 L852.996315,354.370677 L854.861176,359.635589 L856.430083,364.855955 L857.821431,370.39492 L858.92657,376.019991 L859.736904,381.67852 L860.257623,387.248889 L860.662819,394.859769 L860.102189,398.053061 L798.45126,749.115243 L794.612974,767.299952 L793.112969,773.470515 L789.990895,783.326469 L787.91555,788.580706 L785.297875,794.230415 L779.963085,803.833356 L774.259361,812.205517 L770.374301,817.082395 L763.049367,824.998309 L754.894118,832.308458 L746.130086,838.742413 L737.399193,844.006864 L732.435889,846.538874 L727.305974,848.832131 L722.234991,850.794126 L717.287342,852.462221 L714.682407,853.236748 L711.990408,853.970266 L709.118688,854.673591 L706.456633,855.247496 L703.50032,855.810795 L700.806027,856.243133 L697.849478,856.64759 L695.142866,856.941445 L692.42342,857.179673 L689.414159,857.375042 L686.399834,857.480777 L683.941355,857.503472 L183.221339,857.503472 L183.221339,857.468316 Z M342.192304,84.255402 L340.332106,86.6001067 L338.389774,89.2588408 L336.226418,92.4854782 L335.074701,94.3100104 L334.044604,95.9694566 L332.833885,98.0090224 L331.750643,99.8506549 L330.545859,101.983693 L329.435766,103.980291 L328.218546,106.254288 L327.041916,108.48892 L325.85746,110.796389 L324.586114,113.338113 L323.446081,115.628406 L322.130825,118.386545 L320.868681,121.030544 L319.708671,123.491655 L318.390167,126.406632 L317.150027,129.142311 L315.942143,131.862694 L314.621187,134.933397 L313.343184,137.897125 L312.125327,140.757155 L310.802767,143.960572 L309.578856,146.913317 L308.313737,150.059138 L307.047064,153.250029 L304.498763,159.751672 L301.979276,166.320915 L299.445523,173.143779 L296.934997,180.006503 L294.458252,186.934887 L291.964646,194.115287 L289.51737,201.222101 L287.109947,208.39491 L284.698423,215.770716 L282.344458,223.031791 L280.002691,230.428002 L277.711384,237.749087 L275.461626,245.117462 L273.253973,252.463339 L271.088413,259.786708 L268.973727,267.056744 L266.901939,274.333005 L264.908133,281.414893 L262.958195,288.55726 L261.065952,295.555976 L259.237728,302.443629 L257.468217,309.240746 L255.783527,315.82244 L254.153474,322.39346 L252.613804,328.680339 L251.12905,334.939672 L249.735109,340.886788 L248.417691,346.693582 L247.208317,352.17186 L246.063659,357.624818 L245.019273,362.678381 L244.065755,367.540483 L243.21752,372.042224 L242.470678,376.288972 L241.825705,380.235318 L241.034386,385.434688 L240.65485,388.430447 L240.378908,390.993792 L240.220595,392.592377 L240.110228,395.33177 L240.110228,800.615945 L683.663033,800.615945 L685.009023,800.615014 L686.338911,800.575716 L687.91628,800.47261 L689.46415,800.339799 L690.740916,800.210922 L692.258773,800.003261 L693.472276,799.819893 L694.937704,799.540465 L696.1723,799.28379 L697.544284,798.950641 L698.939832,798.573168 L699.918826,798.29993 L702.637143,797.403258 L705.10603,796.475181 L707.551028,795.401858 L709.445758,794.500976 L714.164836,791.761597 L718.540202,788.639747 L722.708719,784.971661 L726.80346,780.568539 L728.169373,778.914033 L731.322381,774.458307 L734.313849,769.078683 L735.434657,766.674254 L736.2919,764.647541 L738.22088,758.679437 L739.060408,755.053209 L742.602541,738.329467 L803.52593,391.316398 L803.298578,388.680883 L802.922056,385.900621 L802.408412,383.183585 L801.691329,380.297285 L800.910368,377.626197 L800.03082,375.078502 L799.011479,372.56582 L797.776097,369.93983 L796.512449,367.515361 L795.13865,365.165227 L793.631648,362.857276 L792.034279,360.646565 L790.414905,358.606214 L788.526313,356.485958 L786.571739,354.476717 L784.677994,352.6771 L782.61755,350.922534 L780.463179,349.260426 L778.248752,347.712543 L775.963345,346.276509 L773.4789,344.889906 L771.090724,343.679781 L768.692503,342.610715 L765.887789,341.556509 L764.429226,341.081631 L763.054844,340.661491 L761.725193,340.285675 L760.490597,339.965 L759.323674,339.695671 L757.576259,339.370217 L756.357309,339.145209 L755.080543,338.952332 L753.553839,338.776854 L751.997637,338.631082 L750.688916,338.527785 L749.342925,338.462853 L747.285019,338.442453 L455.294653,336.84032 L463.085482,302.32713 L463.949522,298.503076 L465.296255,292.323522 L467.032401,284.165552 L468.018639,279.449455 L469.027332,274.595302 L470.095054,269.214967 L471.195048,263.610111 L472.290253,257.913255 L473.4073,251.795509 L474.503998,245.764048 L475.581662,239.499735 L476.627237,233.243587 L477.611685,227.081164 L478.554893,220.659574 L478.994926,217.619682 L479.397401,214.716107 L479.805654,211.489646 L480.162186,208.729265 L480.529745,205.526618 L480.831554,202.994527 L481.131746,199.926016 L481.395908,197.285044 L481.620749,194.724726 L481.820615,192.032003 L481.98704,189.630641 L482.12615,187.077089 L482.226655,185.200498 L482.328862,181.124582 L482.305017,177.596347 L482.198728,174.87403 L482.069802,173.373199 L482.125729,173.081107 L481.874322,172.067557 L481.117582,170.60006 L479.452983,167.588151 L477.607897,164.516977 L475.747313,161.609892 L473.81182,158.787364 L471.735221,155.97472 L469.486505,153.123477 L467.226203,150.393578 L464.899601,147.736741 L462.50562,145.151486 L459.973182,142.569122 L457.392333,140.062852 L454.762377,137.63161 L451.998945,135.204535 L449.195982,132.844603 L446.363807,130.563144 L443.408924,128.290893 L440.51363,126.143428 L437.587726,124.072258 L434.397129,121.925658 L431.345045,119.925091 L428.298573,118.006127 L425.069258,116.06582 L422.023579,114.286443 L418.612789,112.393988 L415.586679,110.734716 L412.308834,109.031772 L409.121386,107.422164 L406.010303,105.905618 L402.674761,104.354625 L399.497776,102.905304 L396.29435,101.494527 L393.20209,100.172344 L390.085281,98.8903757 L386.966912,97.6512752 L383.830228,96.4423485 L380.897534,95.33372 L377.910102,94.2500172 L374.970336,93.2150192 L372.138538,92.2426156 L369.466772,91.3549851 L366.639442,90.4590206 L363.905718,89.6077078 L361.464075,88.859502 L358.927861,88.1200078 L356.369525,87.3921209 L354.296443,86.8042547 L352.046343,86.2069427 L349.602764,85.5739279 L348.083994,85.1642115 L344.272019,84.2534243 L342.546268,83.8540051 L342.192304,84.255402 Z M170.666667,390.965278 L56.8888889,390.965278 L56.8888889,800.579427 L170.666667,800.579427 L170.666667,390.965278 Z" id="Combined-Shape"></path>
            </g>
        </g>
    </g>
</svg>