<?xml version="1.0" encoding="UTF-8"?>
<svg width="22px" height="38px" viewBox="0 0 22 38" version="1.1" xmlns="http://www.w3.org/2000/svg" xmlns:xlink="http://www.w3.org/1999/xlink">
    <title>手机icon-蓝色</title>
    <g id="页面-1" stroke="none" stroke-width="1" fill="none" fill-rule="evenodd">
        <g id="c备份-15" transform="translate(-244.000000, -522.000000)" fill="#167AF6" fill-rule="nonzero">
            <g id="编组-8" transform="translate(140.000000, 491.000000)">
                <g id="编组-2备份-2" transform="translate(104.000000, 28.000000)">
                    <g id="手机icon-蓝色" transform="translate(0.000000, 3.000000)">
                        <path d="M20.35,0 L1.65000001,0 C0.715000014,0 0,0.726470604 0,1.6764706 L0,36.3235294 C0,37.2735294 0.715000014,38 1.65000001,38 L20.35,38 C21.285,38 22,37.2735294 22,36.3235294 L22,1.6764706 C22,0.726470604 21.285,0 20.35,0 Z M11.275,36.3235294 C10.505,36.3235294 9.9,35.7088235 9.9,34.9264706 C9.9,34.1441177 10.505,33.5294118 11.275,33.5294118 C12.045,33.5294118 12.65,34.1441177 12.65,34.9264706 C12.65,35.7088235 12.045,36.3235294 11.275,36.3235294 Z M19.8,31.8529412 L2.20000003,31.8529412 L2.20000003,3.91176472 L19.8,3.91176472 L19.8,31.8529412 Z" id="形状"></path>
                    </g>
                </g>
            </g>
        </g>
    </g>
</svg>