<?xml version="1.0" encoding="UTF-8"?>
<svg width="1024px" height="1024px" viewBox="0 0 1024 1024" version="1.1" xmlns="http://www.w3.org/2000/svg" xmlns:xlink="http://www.w3.org/1999/xlink">
    <!-- Generator: Sketch 52.4 (67378) - http://www.bohemiancoding.com/sketch -->
    <title>“</title>
    <desc>Created with Sketch.</desc>
    <g id="“" stroke="none" stroke-width="1" fill="none" fill-rule="evenodd">
        <g transform="translate(0.000000, 60.000000)" fill="#D4D4D4">
            <path d="M386.612245,903.529412 L0,903.529412 L0,514.801642 C0,444.760252 7.5464098,378.805599 22.6394558,316.935705 C37.7325018,255.06581 60.9522242,200.784547 92.2993197,154.090287 C123.646415,107.396027 163.700436,70.0411798 212.462585,42.0246238 C261.224734,14.0080679 318.113054,0 383.129252,0 L383.129252,175.102599 C343.655131,175.102599 311.14752,185.024981 285.605442,204.870041 C260.063364,224.715102 239.165614,250.980229 222.911565,283.666211 C206.657515,316.352193 195.628147,353.123371 189.823129,393.980848 C184.018112,434.838326 181.115646,475.111521 181.115646,514.801642 L386.612245,514.801642 L386.612245,903.529412 Z M1024,903.529412 L637.387755,903.529412 L637.387755,514.801642 C637.387755,444.760252 644.934165,378.805599 660.027211,316.935705 C675.120257,255.06581 698.339979,200.784547 729.687075,154.090287 C761.03417,107.396027 801.088192,70.0411798 849.85034,42.0246238 C898.612489,14.0080679 955.500809,0 1020.51701,0 L1020.51701,175.102599 C981.042887,175.102599 948.535275,185.024981 922.993197,204.870041 C897.451119,224.715102 876.553369,250.980229 860.29932,283.666211 C844.04527,316.352193 833.015902,353.123371 827.210884,393.980848 C821.405867,434.838326 818.503401,475.111521 818.503401,514.801642 L1024,514.801642 L1024,903.529412 Z"></path>
        </g>
    </g>
</svg>