<?xml version="1.0" encoding="utf-8"?>
<!-- Generator: Adobe Illustrator 21.0.0, SVG Export Plug-In . SVG Version: 6.00 Build 0)  -->
<svg version="1.1" id="图层_3" xmlns="http://www.w3.org/2000/svg" xmlns:xlink="http://www.w3.org/1999/xlink" x="0px" y="0px"
	 width="1024px" height="1024px" viewBox="0 0 1024 1024" enable-background="new 0 0 1024 1024" xml:space="preserve">
<path d="M789.332,684.785c42.293-55.035,70.326-119.459,81.789-188.853c1.795-10.873,3.524-21.764,4.494-32.852
	c9.905-113.384-24.932-223.858-98.113-311.04C626.431-27.967,357.096-51.528,177.049,99.526
	C-2.963,250.561-26.531,519.852,124.522,699.859c84.182,100.301,205.089,152.006,326.84,152.006c17.763,0,35.509-1.487,53.195-3.702
	c64.067-8.016,126.823-30.494,183.106-68.131L892.429,1024L999,934.598L789.332,684.785z M412.795,738.831
	c-76.688-9.336-150.192-46.255-203.678-109.943c-111.9-133.37-94.446-332.893,38.918-444.787
	c59.069-49.531,131.081-73.703,202.734-73.703c90.168,0,179.778,38.316,242.138,112.63c43.875,52.271,68.772,115.891,72.92,182.765
	c0.977,15.762,1.159,31.649-0.243,47.67c-7.352,84.001-46.972,160.112-111.596,214.315
	C584.327,726.214,496.653,749.044,412.795,738.831z"/>
</svg>
