<?xml version="1.0" encoding="utf-8"?>
<!-- Generator: Adobe Illustrator 21.0.0, SVG Export Plug-In . SVG Version: 6.00 Build 0)  -->
<svg version="1.1" id="图层_3" xmlns="http://www.w3.org/2000/svg" xmlns:xlink="http://www.w3.org/1999/xlink" x="0px" y="0px"
	 width="1024px" height="1024px" viewBox="0 0 1024 1024" enable-background="new 0 0 1024 1024" xml:space="preserve">
<path d="M1009.452,939.386L841.756,771.987l-47.024-46.94c60.653-76.351,97.139-172.86,97.139-278.046
	C891.871,200.129,692.218,0,445.936,0C199.651,0,0,200.129,0,447.002c0,246.871,199.651,447.002,445.936,447.002
	c105.671,0,202.607-37.03,279.022-98.601l46.978,46.894l167.516,167.219c9.661,9.661,22.339,14.484,35,14.484
	c12.694,0,25.388-4.854,35.065-14.548C1028.855,990.096,1028.823,958.709,1009.452,939.386z M66.064,447
	c0-210.048,170.403-380.935,379.871-380.935S825.806,236.952,825.806,447S655.403,827.934,445.935,827.934
	S66.064,657.048,66.064,447z"/>
</svg>
