<?xml version="1.0" encoding="utf-8"?>
<!-- Generator: Adobe Illustrator 21.0.0, SVG Export Plug-In . SVG Version: 6.00 Build 0)  -->
<svg version="1.1" id="图层_3" xmlns="http://www.w3.org/2000/svg" xmlns:xlink="http://www.w3.org/1999/xlink" x="0px" y="0px"
	 width="1024px" height="1024px" viewBox="0 0 1024 1024" style="enable-background:new 0 0 1024 1024;" xml:space="preserve">
<style type="text/css">
	.st0{fill:#212121;}
</style>
<path class="st0" d="M980.6,994H41.8c-20.5,0-37.2-16.7-37.2-37.2V102.6c0-20.5,16.7-37.2,37.2-37.2H319c20.5,0,37.2,16.7,37.2,37.2
	s-16.7,37.2-37.2,37.2H79v779.7h864.4V573.8c0-20.5,16.7-37.2,37.2-37.2c20.5,0,37.2,16.7,37.2,37.2v382.9
	C1017.8,977.3,1001.1,994,980.6,994z M418.8,709.8c-20.5,0-37.2-16.7-37.2-37.2V402.2c0-2.5,0.3-5,0.8-7.5
	C404.1,289.3,498,212.8,605.6,212.8h281.5L773.1,85c-13.7-15.3-12.4-38.8,3-52.5c15.4-13.7,38.9-12.3,52.5,3l169.3,189.7
	c9.8,10.9,12.2,26.6,6.2,40c-6,13.4-19.3,22-34,22H605.6c-71.3,0-133.7,49.8-149.6,119v266.4C456,693.1,439.3,709.8,418.8,709.8z"/>
</svg>
