<?xml version="1.0" encoding="UTF-8"?>
<svg width="1024px" height="1024px" viewBox="0 0 1024 1024" version="1.1" xmlns="http://www.w3.org/2000/svg" xmlns:xlink="http://www.w3.org/1999/xlink">
    <!-- Generator: Sketch 52.4 (67378) - http://www.bohemiancoding.com/sketch -->
    <title>Artboard</title>
    <desc>Created with Sketch.</desc>
    <g id="Artboard" stroke="none" stroke-width="1" fill="none" fill-rule="evenodd">
        <path d="M310.991107,201 L713.008893,201 C884.766398,201 1024,340.239443 1024,512 C1024,683.762031 884.764539,823 713.008893,823 L310.991107,823 C139.233602,823 2.84217094e-13,683.760557 2.84217094e-13,512 C2.84217094e-13,340.237969 139.235461,201 310.991107,201 Z M737.547712,790.450896 C892.793873,790.450896 1018.64575,664.686238 1018.64575,509.54767 C1018.64575,354.409102 892.793873,228.644444 737.547712,228.644444 C582.301552,228.644444 456.449673,354.409102 456.449673,509.54767 C456.449673,664.686238 582.301552,790.450896 737.547712,790.450896 Z" id="Combined-Shape" fill="#FF6644"></path>
    </g>
</svg>