<?xml version="1.0" encoding="utf-8"?>
<!-- Generator: Adobe Illustrator 21.0.0, SVG Export Plug-In . SVG Version: 6.00 Build 0)  -->
<svg version="1.1" id="图层_3" xmlns="http://www.w3.org/2000/svg" xmlns:xlink="http://www.w3.org/1999/xlink" x="0px" y="0px"
	 width="1024px" height="1024px" viewBox="0 0 1024 1024" enable-background="new 0 0 1024 1024" xml:space="preserve">
<g>
	<path d="M356.056,1l-38.034,49.169l-64.765,83.728H147.459h-4.639L7,309.484V1023h796.764v-49.159v-83.733h83.663H1017V1H356.056z
		 M720.107,939.277H136.568H90.653V338.09l45.915-59.353l47.284-61.121h36.384h83.653h416.218v588.78v83.713V939.277z
		 M933.342,806.395h-45.915h-83.663V133.897H359.053l38.034-49.164h490.34h45.915V806.395z"/>
	<polygon points="220.236,395.2 170.391,395.2 170.391,478.923 220.236,478.923 303.888,478.923 664.51,478.923 664.51,395.2 
		303.888,395.2 	"/>
	<polygon points="220.236,627.768 170.391,627.768 170.391,711.491 220.236,711.491 303.888,711.491 543.779,711.491 
		543.779,627.768 303.888,627.768 	"/>
</g>
</svg>
