<?xml version="1.0" encoding="utf-8"?>
<!-- Generator: Adobe Illustrator 21.0.0, SVG Export Plug-In . SVG Version: 6.00 Build 0)  -->
<svg version="1.1" id="图层_3" xmlns="http://www.w3.org/2000/svg" xmlns:xlink="http://www.w3.org/1999/xlink" x="0px" y="0px"
	 width="1024px" height="1024px" viewBox="0 0 1024 1024" enable-background="new 0 0 1024 1024" xml:space="preserve">
<g>
	<path d="M1024,628.875c0-116.529-93.037-215.63-213.703-250.602c-30.065-8.711-61.769-13.612-94.265-13.612
		c-172.504,0-308.367,118.653-308.367,264.214c0,86.157,47.662,162.51,122.065,210.754c51.514,33.401,115.73,53.453,186.303,53.453
		c36.104,0,72.528-9.154,108.789-18.28l99.452,54.699l-27.269-90.985C969.779,783.688,1024,710.986,1024,628.875z M616.055,510.471
		c27.424,0,45.383,18.258,45.383,36.416c0,18.413-17.959,36.408-45.383,36.408c-18.052,0-36.266-17.994-36.266-36.408
		C579.789,528.729,598.003,510.471,616.055,510.471z M815.481,583.295c-1.735,0-3.462-0.306-5.184-0.628
		c-16.062-2.997-30.827-19.149-30.827-35.781c0-16.401,14.765-32.743,30.827-35.781c1.722-0.328,3.449-0.636,5.184-0.636
		c27.176,0,45.386,18.258,45.386,36.416C860.865,565.301,842.657,583.295,815.481,583.295z"/>
	<path d="M692.399,346.994c11.734,0,23.341,0.839,34.858,2.129c-5.059-23.594-13.678-46.071-24.807-67.407
		C644.678,170.95,511.251,94.5,362.001,94.5C163.005,94.5,0,230.331,0,402.838c0,99.609,54.228,181.344,144.854,244.78
		l-36.203,109.064l126.549-63.55c32.177,6.368,59.899,12.73,89.425,15.965c12.026,1.316,24.296,2.24,37.375,2.24
		c11.361,0,22.628-0.569,33.798-1.444c-7.071-24.225-11.171-49.611-11.171-75.973C384.629,475.527,520.441,346.994,692.399,346.994z
		 M244.4,339.283c-27.129,0-54.514-18.181-54.514-45.387c0-27.269,27.384-45.221,54.514-45.221
		c27.134,0,45.188,17.952,45.188,45.221C289.589,321.102,271.534,339.283,244.4,339.283z M497.753,248.675
		c22.918,0,39.176,12.792,43.821,33.041c0.88,3.835,1.491,7.839,1.491,12.18c0,27.207-18.054,45.387-45.311,45.387
		c-27.13,0-54.358-18.181-54.358-45.387c0-4.342,0.898-8.345,2.168-12.18C452.271,261.466,474.943,248.675,497.753,248.675z"/>
</g>
</svg>
